# xmcd CD database file
#
# Track frame offsets:
#	150
#	28527
#	57542
#	62314
#	67086
#	73261
#	79766
#	85053
#	90323
#	98928
#	107533
#	113555
#	119577
#	129546
#	139515
#	146726
#	153937
#	159860
#	165783
#	173712
#	181641
#	187981
#	194497
#
# Disc length: 2690 seconds
#
# Revision: 0
# Processed by: cddbd v1.5.2PL0 Copyright (c) Steve Scherf et al.
# Submitted via: CDex 1.70beta2
#
DISCID=280a8017
DTITLE=Dave Hollander and Matt Glaser - Beyond Bluegrass Banjo: Etudes and Ideas For The Modern Banjo Player
DYEAR=2009
DGENRE=Jazz
TTITLE0="The Ark And The Saw" Extended Performance
TTITLE1="High Windy" Extended Performance
TTITLE2="Lamb Chops" Full Band
TTITLE3="Lamb Chops" Play Along
TTITLE4="The Girl I Left Behind Me" Full Band
TTITLE5="The Girl I Left Behind Me" Play Along
TTITLE6="The Infinite Blackberry Blossom" Full Band
TTITLE7="The Infinite Blackberry Blossom" Play Along
TTITLE8="The Ark And The Saw" Full Band
TTITLE9="The Ark And The Saw" Play Along
TTITLE10="Act Natural" Full Band
TTITLE11="Act Natural" Play Along
TTITLE12="High Windy" Full Band
TTITLE13="High Windy" Play Along
TTITLE14="IHOP" Full Band
TTITLE15="IHOP" Play Along
TTITLE16="Hot Lick Fiddle Chick" Full Band
TTITLE17="Hot Lick Fiddle Chick" Play Along
TTITLE18="Gunshot Wound In The E.R." Full Band
TTITLE19="Gunshot Wound In The E.R." Play Along
TTITLE20="Fishy Hornpipe" Full Band
TTITLE21="Fishy Hornpipe" Play Along
TTITLE22="The Girl I Left Behind Me" Solo Banjo
EXTD=YEAR: 2009
EXTT0=
EXTT1=
EXTT2=
EXTT3=
EXTT4=
EXTT5=
EXTT6=
EXTT7=
EXTT8=
EXTT9=
EXTT10=
EXTT11=
EXTT12=
EXTT13=
EXTT14=
EXTT15=
EXTT16=
EXTT17=
EXTT18=
EXTT19=
EXTT20=
EXTT21=
EXTT22=
PLAYORDER=
